<svg width="32" height="36" viewBox="0 0 32 36" fill="none" xmlns="http://www.w3.org/2000/svg">
<g clip-path="url(#clip0_34_173)">
<path fill-rule="evenodd" clip-rule="evenodd" d="M19.2787 12.8239C20.444 12.2748 21.9268 11.4665 23.4114 10.359C23.7244 10.9733 23.7587 11.5093 23.5974 11.9422C23.4831 12.2472 23.2678 12.5125 22.9846 12.7236C22.6779 12.9517 22.2949 13.1178 21.8716 13.2076C21.0683 13.3786 20.1304 13.2787 19.2787 12.8239ZM19.4807 18.4502L21.0233 19.2923C17.8736 20.9605 17.0173 24.0582 16.0002 27.0754C14.9832 24.0582 14.1268 20.9605 10.9772 19.2923L12.5198 18.4502C12.669 18.3969 12.7966 18.3004 12.8842 18.1744C12.9718 18.0484 13.0149 17.8994 13.0074 17.7488C12.8661 14.9232 13.6735 13.6736 14.7625 12.8891C15.1531 12.608 15.5795 12.4669 16.0002 12.4669C16.4209 12.4669 16.8473 12.608 17.238 12.8891C18.3271 13.6736 19.1344 14.9232 18.9931 17.7488C18.9856 17.8994 19.0287 18.0484 19.1163 18.1744C19.2039 18.3004 19.3315 18.3969 19.4807 18.4502ZM16.0002 0C17.7833 0.04524 19.5709 0.37236 21.1222 1.00872C22.1965 1.44996 23.1989 2.0328 24.1066 2.72976C24.5165 3.0444 24.854 3.34836 25.2259 3.69828C26.2286 3.73104 27.6942 2.67828 28.3745 1.6932C27.2036 5.3208 21.8604 9.60468 18.1612 11.2439C18.1597 11.2433 18.1587 11.2424 18.1575 11.2417C17.4937 10.7627 16.747 10.5232 16.0002 10.5232C15.2534 10.5232 14.5069 10.7627 13.843 11.2417C13.8419 11.2423 13.8408 11.2434 13.8393 11.2439C10.14 9.60468 4.7969 5.3208 3.62598 1.6932C4.30623 2.67828 5.77175 3.73104 6.77455 3.69828C7.14648 3.34848 7.48401 3.0444 7.89379 2.72976C8.80147 2.0328 9.80388 1.44996 10.8782 1.00872C12.4297 0.37236 14.2172 0.04524 16.0002 0ZM12.7217 12.8239C11.5565 12.2748 10.0736 11.4665 8.58915 10.359C8.27614 10.9733 8.24185 11.5093 8.40299 11.9422C8.51741 12.2472 8.73277 12.5125 9.01582 12.7236C9.32261 12.9517 9.7056 13.1178 10.129 13.2076C10.9323 13.3786 11.87 13.2787 12.7217 12.8239Z" fill="white"/>
<path fill-rule="evenodd" clip-rule="evenodd" d="M25.0371 9.00197C25.8544 8.22257 26.5745 7.35989 27.1535 6.59009L27.4476 7.11317C28.3944 8.90321 28.8864 10.686 28.8864 12.6924L28.8843 15.8763L28.9021 17.5268C28.9707 21.5787 29.8984 25.6782 32 29.4299L27.6029 26.0793L24.4917 30.8504L21.2231 27.9426L16 35.9525L10.7769 27.9428L7.50845 30.8505L4.39721 26.0794L0 29.43C2.10159 25.6784 3.02933 21.5788 3.09803 17.5269L3.11581 15.8764L3.11378 12.6926C3.11378 10.686 3.60559 8.90321 4.55264 7.11329L4.8466 6.59021C5.42565 7.36001 6.14565 8.22257 6.96305 9.00209L6.70781 9.50309C6.21194 10.4762 6.04775 11.5642 6.43403 12.599C6.68305 13.2654 7.13752 13.837 7.72343 14.2733C8.29232 14.697 8.96559 14.9826 9.67048 15.1326C10.1297 15.2303 10.5975 15.2705 11.0622 15.2568C10.9538 15.8378 10.9064 16.4403 10.9034 17.0542L6.75556 19.3181L9.95632 21.0136C10.2121 21.1491 10.4557 21.3044 10.6844 21.4779C13.3233 23.7168 14.9098 30.3405 16.0001 33.5758C17.0905 30.3405 18.677 23.7168 21.3159 21.4779C21.5447 21.3044 21.7882 21.1491 22.0441 21.0136L25.2448 19.3181L21.0969 17.0542C21.0938 16.4403 21.0465 15.8378 20.938 15.2568C21.4028 15.2705 21.8706 15.2303 22.3298 15.1326C23.0347 14.9826 23.7081 14.697 24.2768 14.2733C24.8626 13.837 25.3172 13.2654 25.5661 12.599C25.9525 11.5642 25.7882 10.4763 25.2924 9.50309L25.0372 9.00209L25.0371 9.00197Z" fill="white"/>
</g>
<defs>
<clipPath id="clip0_34_173">
<rect width="32" height="36" fill="white"/>
</clipPath>
</defs>
</svg>
