<svg width="43" height="36" viewBox="0 0 43 36" fill="none" xmlns="http://www.w3.org/2000/svg">
<path d="M1.12971 16.4104C1.22845 16.3604 1.32725 16.313 1.42353 16.268C3.09732 15.4838 4.79333 14.7496 6.48687 14.0153C6.57821 14.0153 6.73123 13.9079 6.81764 13.8729C6.94848 13.8155 7.07935 13.7605 7.21019 13.7031C7.462 13.5932 7.71382 13.4858 7.96316 13.3759C8.46678 13.1586 8.96789 12.9414 9.47151 12.7241L12.4858 11.4179C14.4953 10.5488 16.5074 9.67714 18.5169 8.80801C20.5265 7.93888 22.5384 7.06725 24.548 6.19813C26.5575 5.329 28.5695 4.45739 30.579 3.58826C32.5886 2.71913 34.6006 1.8475 36.6102 0.978377C37.057 0.783572 37.5409 0.493856 38.0198 0.408941C38.4222 0.336514 38.8147 0.196661 39.2196 0.119239C39.9873 -0.0281133 40.8341 -0.0880476 41.5698 0.234129C41.8241 0.346516 42.0586 0.503857 42.2536 0.701159C43.1868 1.63522 43.0559 3.16867 42.8584 4.48235C41.4834 13.6382 40.1083 22.7965 38.7308 31.9523C38.5431 33.2085 38.2864 34.5871 37.3063 35.3813C36.4768 36.0532 35.2967 36.1281 34.2722 35.8434C33.2477 35.5562 32.3442 34.9543 31.4579 34.3624C27.782 31.8998 24.1036 29.4373 20.4277 26.9748C19.5538 26.3904 18.5811 25.6261 18.591 24.5647C18.5959 23.9253 18.9736 23.3559 19.3587 22.8489C22.5533 18.6332 27.1623 15.7361 30.5914 11.7151C31.0753 11.1482 31.4555 10.1242 30.7914 9.79702C30.3964 9.60222 29.9421 9.86695 29.5817 10.1192C25.0491 13.3035 20.5191 16.4903 15.9865 19.6746C14.5077 20.7136 12.9574 21.7825 11.175 22.0372C9.58017 22.267 7.97551 21.8174 6.43257 21.3579C5.13896 20.9733 3.84778 20.5787 2.56157 20.1716C1.87774 19.9568 1.17168 19.7246 0.643376 19.2375C0.11507 18.7505 -0.188541 17.9313 0.129924 17.282C0.32989 16.8749 0.717486 16.6177 1.12482 16.4079L1.12971 16.4104Z" fill="#FEFFFC"/>
</svg>
