<svg width="31" height="36" viewBox="0 0 31 36" fill="none" xmlns="http://www.w3.org/2000/svg">
<path d="M30.3755 8.4891V14.5319C29.3194 14.4288 27.9472 14.1888 26.4292 13.6328C24.447 12.9063 22.9717 11.913 22.0053 11.1439V23.3573L21.9806 23.3192C21.9963 23.5614 22.0053 23.808 22.0053 24.0569C22.0053 30.1221 17.0701 35.0595 11.0026 35.0595C4.93515 35.0595 0 30.1221 0 24.0569C0 17.9917 4.93515 13.052 11.0026 13.052C11.5968 13.052 12.1798 13.0991 12.7493 13.191V19.1464C12.2022 18.9513 11.6148 18.846 11.0026 18.846C8.13033 18.846 5.79168 21.1824 5.79168 24.0569C5.79168 26.9314 8.13033 29.2678 11.0026 29.2678C13.8749 29.2678 16.2136 26.9292 16.2136 24.0569C16.2136 23.9493 16.2113 23.8417 16.2046 23.734V0H22.2429C22.2654 0.511229 22.2855 1.02695 22.308 1.53818C22.3483 2.54494 22.7071 3.51133 23.3326 4.30284C24.0659 5.23337 25.1489 6.31413 26.6691 7.17738C28.0929 7.98234 29.4293 8.32989 30.3755 8.49357V8.4891Z" fill="white"/>
</svg>
